# xmcd CD database file
#
# Track frame offsets:
#	150
#	15223
#	28628
#	40935
#	56106
#	68076
#	83933
#	100605
#	112489
#	127003
#	138317
#	152270
#	166111
#	185175
#	201496
#	215933
#	232879
#	255007
#
# Disc length: 3576 seconds
#
# Revision: 0
# Processed by: cddbd v1.5PL3 Copyright (c) Steve Scherf et al.
# Submitted via: CDex 1.51
#
DISCID=f60df612
DTITLE=TOSHIBA-EMI - 笑タイム Disc6
DYEAR=2003
DGENRE=Comedy
TTITLE0=青島だァー - 青島幸男
TTITLE1=ほらふきマドロス - 小林 旭
TTITLE2=シガレット小唄 - 五月みどり
TTITLE3=ぬかづけふるづけいちやづけ - 北島三郎
TTITLE4=男のテキ - フランキー堺
TTITLE5=昭和元禄ハレンチ音頭 - 晴乃チック・タック
TTITLE6=華麗なる人生（ウハウハソング） - 南 利明
TTITLE7=おばけのサンバ - 斉藤浩子、小松方正
TTITLE8=マドモアゼル - 三遊亭小円遊
TTITLE9=アリャリャン音頭 - 三波伸介 他笑点一同
TTITLE10=人生ぼやき節 - 人生幸朗、生恵幸子
TTITLE11=DISCO・翔んでる寅さん - 渥美 清
TTITLE12=オール・ザット・おもろない - 笑福亭鶴光
TTITLE13=人生はタタカイやで - 横山やすし、一八親子
TTITLE14=ラブユー貧乏（ボーカル編） - ロス・プリモス
TTITLE15=駄目な時ゃダメよ - 美川憲一
TTITLE16=ほほほの穂 - 今いくよ・くるよ＆石川二郎
TTITLE17=KANREKIロック - ミッキー・カーチス
EXTD=YEAR: 2003
EXTT0=
EXTT1=
EXTT2=
EXTT3=
EXTT4=
EXTT5=
EXTT6=
EXTT7=
EXTT8=
EXTT9=
EXTT10=
EXTT11=
EXTT12=
EXTT13=
EXTT14=
EXTT15=
EXTT16=
EXTT17=
PLAYORDER=
